<svg xmlns="http://www.w3.org/2000/svg" viewBox="0 0 64 64" role="img" aria-labelledby="title">
  <title id="title">Sīki remontdarbi</title>
  <g fill="none" stroke="#0A7EB0" stroke-width="3.2" stroke-linecap="round" stroke-linejoin="round">
    <path d="M14 50l17-17"/>
    <path d="M31 33l8-8"/>
    <path d="M39 25a10 10 0 0 1 13-12l-7 7 4 4 7-7a10 10 0 0 1-12 13L25 49l-6 1-5-5 1-6 19-19"/>
    <path d="M16 14l10 10"/>
    <path d="M12 18l6-6 10 10-6 6z"/>
    <path d="M34 38l16 16"/>
  </g>
  <path d="M39 43l5-5" stroke="#67D8F2" stroke-width="3.2" stroke-linecap="round"/>
</svg>
